<?xml version="1.0" encoding="utf-8"?>
<!-- Generator: Adobe Illustrator 21.0.1, SVG Export Plug-In . SVG Version: 6.00 Build 0)  -->
<svg version="1.1" xmlns="http://www.w3.org/2000/svg" xmlns:xlink="http://www.w3.org/1999/xlink" x="0px" y="0px"
	 width="411.864px" height="51.54px" viewBox="0 0 411.864 51.54" style="enable-background:new 0 0 411.864 51.54;"
	 xml:space="preserve">
<style type="text/css">
	.st0{fill:#221714;}
	.st1{fill:#D61518;}
	.st2{fill:#190907;}
</style>
<g id="レイヤー_1">
</g>
<g id="文字">
	<g>
		<g>
			<path class="st0" d="M51.467,17.846c-0.638-1.402-2.292-2.023-3.695-1.385c-0.291,0.132-7.12,3.303-13.971,11.448l3.436,4.354
				c0.239-0.152,0.466-0.328,0.657-0.558c6.023-7.244,12.085-10.116,12.194-10.168C51.486,20.898,52.104,19.247,51.467,17.846z"/>
			<path class="st1" d="M51.521,9.642c-0.567-1.433-2.186-2.135-3.621-1.568c-2.511,0.993-10.121,4.01-18.639,14.26l3.428,4.343
				c0.257-0.157,0.499-0.344,0.702-0.59c7.675-9.31,14.132-11.863,16.563-12.825C51.386,12.696,52.089,11.075,51.521,9.642z"/>
			<path class="st0" d="M51.648,2.171c-0.342-1.503-1.841-2.44-3.339-2.102c-0.431,0.098-10.684,2.554-23.461,16.426
				c-0.01,0.01-0.016,0.023-0.026,0.034l3.394,4.301c0.267-0.143,0.52-0.319,0.737-0.555C40.372,7.875,49.392,5.549,49.561,5.506
				C51.054,5.158,51.988,3.669,51.648,2.171z"/>
		</g>
		<g>
			<path class="st0" d="M30.628,42.858h4.164v3.039H14.26l0.211-15.615c0.01-0.754-0.282-1.482-0.812-2.019
				c-0.53-0.537-1.253-0.84-2.008-0.84H9.405l13.083-13.73l1.192,1.363c1.354-1.461,2.683-2.8,3.976-4.024l-2.954-3.38
				c-0.522-0.597-1.271-0.947-2.063-0.964c-0.803-0.012-1.556,0.301-2.103,0.874L0.779,28.298C0,29.115-0.216,30.318,0.228,31.355
				c0.445,1.037,1.464,1.71,2.593,1.71h5.97L8.58,48.681c-0.01,0.754,0.283,1.482,0.813,2.019c0.53,0.537,1.253,0.84,2.008,0.84
				h26.212c1.558,0,2.821-1.263,2.821-2.821v-5.86h3.682l-6.744-9.793L30.628,42.858z"/>
		</g>
	</g>
	<g>
		<g>
			<g>
				<path class="st2" d="M87.021,21.034c-0.032,3.145-0.032,6.973-0.615,9.434c-0.615,2.598-2.461,7.451-10.394,7.998v-6.494
					c3.335-0.171,5.019-1.777,5.181-4.956H58.042v-5.981H87.021z M73.486,33.544c-0.032,3.213-0.032,7.656-2.428,10.664
					c-2.364,2.974-6.282,5.127-12.531,5.195v-6.152c5.537-0.273,6.897-2.598,7.609-3.896c0.972-1.743,0.972-4.17,0.972-6.563v-2.905
					h6.378V33.544z"/>
			</g>
			<g>
				<path class="st2" d="M112.382,37.236H87.633v-6.152h24.749V37.236z"/>
			</g>
			<g>
				<path class="st2" d="M142.329,28.075c0,14.219-6.347,17.705-9.196,19.141c-3.594,1.777-7.9,1.982-12.79,2.017h-1.521v-5.981
					h1.748c5.148,0.171,8.096-0.991,9.974-2.085c1.684-1.06,5.083-3.452,5.083-10.288v-1.641h-10.685
					c-2.17,3.794-5.473,6.289-9.974,7.69v-7.007c3.854-1.675,5.731-5.024,5.764-10.254h6.185c-0.032,1.128-0.097,2.29-0.194,3.418
					h15.607V28.075z"/>
			</g>
			<g>
				<path class="st2" d="M168.047,20.966c-0.292,6.255-1.522,11.382-3.982,15.62l7.738,4.819v7.759l-11.365-7.759
					c-4.08,4.17-9.682,6.699-16.837,7.656v-6.494c9.778-1.196,15.25-6.118,16.999-15.449h-15.186v-6.152H168.047z"/>
			</g>
			<g>
				<path class="st2" d="M199.937,25.785c0,16.372-5.278,23.345-18.683,23.413h-5.505v-5.981h4.501
					c5.764,0,9.195-1.162,11.397-4.888h-10.394v-5.981h12.239c0.194-1.367,0.291-2.495,0.291-3.35v-0.786H181.74
					c-2.072,4.136-5.277,6.665-9.778,7.725v-6.836c3.529-0.649,5.602-3.896,5.99-9.604h6.151c-0.097,0.854-0.227,1.743-0.421,2.734
					h16.255V25.785z"/>
			</g>
			<g>
				<path class="st2" d="M202.906,31.459c1.943,0.034,3.563-0.137,5.148-0.82c1.717-0.752,4.469-2.666,8.483-5.435
					c3.4-2.393,5.407-3.623,7.253-4.102c0.972-0.273,2.591-0.308,4.016-0.308h1.845v6.221h-1.229
					c-3.012-0.034-4.76,0.923-7.577,2.871v19.38h-6.476V34.33c-1.522,1.06-3.141,2.188-5.181,2.837
					c-1.296,0.41-2.753,0.615-5.537,0.615h-2.008v-6.323H202.906z"/>
			</g>
			<g>
				<path class="st2" d="M238.374,35.595c0,3.281,0.097,4.854-0.615,7.178c-1.489,4.819-6.087,6.699-8.646,6.768v-6.426
					c1.263-0.273,2.008-0.991,2.396-1.504c0.485-0.615,1.166-1.196,1.198-4.888V22.265h5.666V35.595z M247.763,42.499h0.356
					c1.004,0,2.72-0.923,3.724-2.393c1.166-1.709,1.263-3.965,1.263-7.075v-5.298h5.828v3.691c0,5.4,0.259,9.536-2.461,13.159
					c-1.942,2.495-4.468,3.555-5.99,3.999c-2.137,0.649-4.079,0.649-6.119,0.649h-2.817V20.966h6.217V42.499z"/>
			</g>
			<g>
				<path class="st2" d="M273.613,21.205h11.624c-0.324,6.665-1.684,11.895-3.95,15.483c3.432,3.281,6.54,5.264,8.937,6.665
					l-3.076,6.392c-4.08-2.324-7.415-5.195-9.94-8.647c-2.882,3.828-7.674,6.938-14.312,9.092l-2.72-6.426
					c10.037-2.598,16.189-8.408,17.97-16.577h-6.896c-2.169,4.067-4.371,6.938-6.638,8.682l-4.307-5.161
					c4.178-3.247,6.768-7.485,7.707-12.544l6.184,0.82L273.613,21.205z"/>
			</g>
			<g>
				<path class="st2" d="M316.673,34.194h-3.108l-0.486,1.401h6.541v3.931h-30.178v-3.931h7.188l-0.421-1.401h-3.82v-6.665h24.284
					V34.194z M319.134,22.914H307.38v0.854h10.782v3.076h-27.198v-3.076h10.75v-0.854h-11.56v-3.589h11.56v-1.162h5.666v1.162
					h11.754V22.914z M317.353,49.711h-5.343v-0.649h-14.732v0.649h-5.343v-9.229h25.418V49.711z M312.01,44.072h-14.732v1.23h14.732
					V44.072z M311.654,30.263h-14.246v1.196h14.246V30.263z M301.358,34.194l0.389,1.401h5.472l0.421-1.401H301.358z"/>
			</g>
			<g>
				<path class="st2" d="M350.28,23.974h-6.8v0.786h3.756v10.493h-24.025V24.76h3.724v-0.786h-6.605V19.36h6.605v-0.854h5.019v0.854
					h6.509v-0.923h5.019v0.923h6.8V23.974z M348.952,49.916h-5.181v-0.82H326.74v0.82h-5.181V36.21h27.393V49.916z M343.771,39.799
					H326.74v1.025h17.031V39.799z M343.771,43.901H326.74v1.094h17.031V43.901z M342.217,27.836h-13.988v0.854h13.988V27.836z
					 M342.217,31.254h-13.988v0.923h13.988V31.254z M331.953,23.974v0.786h6.509v-0.786H331.953z"/>
			</g>
			<g>
				<path class="st2" d="M358.837,39.491c-0.583,3.862-1.846,7.314-3.854,10.391l-4.048-3.76c1.651-2.222,2.85-4.956,3.627-8.34
					c-1.101-0.684-2.363-1.333-3.756-1.88l2.072-4.614c1.878,0.684,3.659,1.641,5.439,2.871l-1.521,4.204L358.837,39.491z
					 M380.887,23.427h-5.893v0.82l3.658-0.308l0.713,1.401h1.651v4.102h-8.71v0.991h7.868v14.902c0,3.213-0.907,4.546-3.886,4.546
					h-2.429l-0.323-5.161h0.971c0.647,0,0.81-0.171,0.81-0.854v-0.239h-3.011v5.571h-5.02v-5.571h-2.654v6.118h-5.02V30.434h7.674
					v-0.991h-8.612v-4.102h8.612v-0.752h5.02v0.752h2.331l-0.551-0.923h-4.273v-0.991h-7.545v0.991h-5.181v-0.991h-5.99v-3.931h5.99
					v-0.889h5.181v0.889h7.545v-0.889h5.181v0.889h5.893V23.427z M353.689,24.316c1.198,0.649,2.688,1.606,4.403,3.042l-1.976,4.717
					c-2.072-1.675-3.658-2.769-4.76-3.384L353.689,24.316z M364.633,34.365v0.991h2.654v-0.991H364.633z M364.633,40.038h2.654
					v-1.094h-2.654V40.038z M375.318,34.365h-3.011v0.991h3.011V34.365z M375.318,38.945h-3.011v1.094h3.011V38.945z"/>
			</g>
			<g>
				<path class="st2" d="M401.438,20.214h10.297v5.127h-22.504v5.64c0,8.271-1.004,14.287-3.108,18.047l-4.76-5.059
					c1.555-2.837,2.363-7.246,2.363-13.228V20.214h11.884v-1.709h5.828V20.214z M403.284,28.691h8.58v5.127h-8.58v2.085h7.771
					v13.843h-5.342v-1.196h-10.038v1.196h-5.343V35.903h7.447v-9.434h5.505V28.691z M405.712,40.859h-10.038v2.734h10.038V40.859z"
					/>
			</g>
		</g>
	</g>
	<g>
		<g>
			<path class="st2" d="M70.868,14.645H59.719c-0.897,0-1.221,0.044-1.589,0.104l-0.235-0.545c0.897,0.089,1.927,0.089,2.089,0.089
				h2.133c-0.162-0.133-0.176-0.206-0.353-0.883c-0.147-0.589-0.279-0.839-0.368-0.985c-0.103,0.279-0.529,0.426-0.883,0.426
				c-0.529,0-0.559-0.279-0.559-0.471c0-0.103,0.029-0.515,0.029-0.588c0.015-0.279,0.015-0.604,0.015-0.971
				c0-0.618-0.029-1.191-0.073-1.604l1.765,0.604h5.428l0.368-0.516c0.059-0.073,0.132-0.176,0.235-0.176
				c0.088,0,0.191,0.088,0.309,0.176l0.824,0.662c0.088,0.074,0.147,0.147,0.147,0.235c0,0.118-0.044,0.147-0.456,0.412
				c0,0.235,0.029,1.25,0.029,1.456c0,0.56-0.618,0.647-0.912,0.647c-0.529,0-0.544-0.294-0.529-0.5h-1.309l1.427,0.559
				c0.088,0.029,0.191,0.104,0.191,0.221c0,0.162-0.206,0.206-0.544,0.265c-0.412,0.368-0.824,0.706-1.265,1.03h3.001l0.676-0.927
				c0.103-0.133,0.162-0.191,0.235-0.191c0.059,0,0.103,0.015,0.28,0.162l1.118,0.926c0.088,0.074,0.147,0.147,0.147,0.235
				C71.089,14.63,70.971,14.645,70.868,14.645z M70.589,8.717H59.895c-0.897,0-1.221,0.029-1.588,0.103l-0.235-0.544
				c0.882,0.073,1.927,0.088,2.089,0.088h8.325l0.633-0.779c0.118-0.147,0.162-0.177,0.235-0.177c0.073,0,0.118,0.015,0.279,0.147
				l1.03,0.779c0.073,0.06,0.147,0.133,0.147,0.221C70.81,8.702,70.677,8.717,70.589,8.717z M69.074,4.466
				c-0.015,0.427,0.044,2.295,0.044,2.662c0,0.441-0.471,0.691-0.941,0.691c-0.485,0-0.5-0.323-0.5-0.5h-6.604
				c0.044,0.559-0.529,0.706-0.838,0.706c-0.309,0-0.618-0.103-0.618-0.529c0-0.412,0.044-2.266,0.044-2.648
				c0-0.573-0.015-0.911-0.088-1.883l1.647,0.618h1.06c-0.03-0.985-0.044-1.177-0.28-1.883l1.868,0.471
				c0.118,0.029,0.191,0.059,0.191,0.162c0,0.161-0.25,0.323-0.383,0.427c-0.015,0.279-0.015,0.559-0.015,0.823h1.324
				c-0.029-0.897-0.073-1.235-0.265-1.81l1.795,0.383c0.132,0.029,0.235,0.059,0.235,0.206s-0.118,0.25-0.368,0.383
				c0,0.471-0.015,0.529-0.015,0.838h1.236l0.412-0.485c0.118-0.147,0.132-0.177,0.221-0.177c0.103,0,0.25,0.104,0.324,0.162
				l0.838,0.573c0.074,0.06,0.191,0.147,0.191,0.31C69.589,4.142,69.221,4.363,69.074,4.466z M62.278,3.937h-1.207V5.26h1.207V3.937
				z M62.278,5.614h-1.207v1.353h1.207V5.614z M67.147,10.173H61.44v1.691h5.708V10.173z M61.616,12.218
				c0.118,0.044,0.691,0.221,0.809,0.265c0.471,0.162,0.912,0.544,0.912,1.133c0,0.309-0.147,0.529-0.412,0.677h2.104
				c0.029-0.074,0.426-1.118,0.529-2.074H61.616z M64.984,3.937h-1.324V5.26h1.324V3.937z M64.984,5.614h-1.324v1.353h1.324V5.614z
				 M67.676,3.937h-1.309V5.26h1.309V3.937z M67.676,5.614h-1.309v1.353h1.309V5.614z"/>
			<path class="st2" d="M77.697,13.277c-0.41,0.45-0.9,0.701-1.283,0.701c-0.477,0-0.503-0.225-0.556-0.807
				c-0.066-0.688-0.609-1.429-0.847-1.746l0.026-0.066c0.384,0.251,1.336,0.754,1.561,0.754c0.198,0,0.344-0.079,0.476-0.304
				c0.781-1.323,0.992-3.321,0.992-3.823c0-0.966-0.225-1.297-0.78-1.297c-0.08,0-0.304,0.014-0.714,0.093
				c-1.059,2.421-2.011,4.313-2.408,5.093c-0.807,1.588-0.992,1.72-1.323,1.72c-0.423,0-0.595-0.489-0.595-0.859
				c0-0.477,0.119-0.635,0.635-1.271c1.071-1.336,1.998-3.161,2.513-4.379c-0.847,0.305-1.084,0.464-1.852,0.953
				c-0.146,0.093-0.291,0.185-0.476,0.185c-0.45,0-1.111-0.661-1.111-1.362c0-0.423,0.185-0.622,0.344-0.794
				c0.225,0.622,0.423,0.728,0.741,0.728c0.437,0,2.302-0.449,2.672-0.529c0.331-0.847,0.529-1.455,0.529-1.865
				c0-0.582-0.489-0.754-1.019-0.926c0.291-0.225,0.635-0.384,1.005-0.384c0.569,0,1.588,0.608,1.588,1.111
				c0,0.212-0.106,0.437-0.357,0.82C77.287,5.3,77.128,5.604,76.89,6.107c0.106-0.014,0.278-0.026,0.516-0.026
				c1.19,0,1.693,0.675,1.693,2.17C79.099,9.546,78.65,12.219,77.697,13.277z M82.949,10.34c-0.238,0-0.317-0.079-0.675-0.477
				c-0.317-0.357-1.19-0.635-1.892-0.688V9.07c0.265-0.053,1.336-0.265,1.442-0.356c0.066-0.054,0.093-0.172,0.093-0.238
				c0-0.186-0.331-0.913-0.887-1.535c-0.476-0.529-1.005-0.899-1.389-1.15c3.956,0.648,3.956,3.479,3.956,3.664
				C83.597,9.851,83.425,10.34,82.949,10.34z"/>
			<path class="st2" d="M91.506,5.379c-0.807,0.291-1.627,0.463-2.897,0.714c-0.106,0.226-1.257,2.62-1.653,3.479
				c-0.371,0.834-0.939,1.813-1.23,2.024c-0.093,0.066-0.199,0.093-0.265,0.093c-0.198,0-0.595-0.238-0.595-0.794
				c0-0.397,0.159-0.582,0.437-0.926c0.079-0.093,1.416-2.024,2.143-3.639c-0.159,0.04-0.463,0.106-0.873,0.106
				c-1.323,0-1.693-0.794-1.693-1.191c0-0.119,0.013-0.185,0.04-0.304c0.384,0.542,1.164,0.582,1.601,0.582
				c0.437,0,0.9-0.053,1.323-0.146c0.079-0.265,0.384-1.138,0.384-1.574c0-0.265-0.119-0.543-0.953-0.701
				c0.132-0.146,0.437-0.424,0.953-0.424c0.542,0,1.614,0.437,1.614,0.899c0,0.212-0.08,0.331-0.278,0.636
				c-0.172,0.251-0.198,0.317-0.45,0.833c0.357-0.119,0.741-0.277,0.992-0.396c0.569-0.265,0.635-0.305,0.793-0.305
				c0.265,0,0.913,0.238,0.913,0.648C91.811,5.207,91.652,5.326,91.506,5.379z M94.92,8.501c-0.08,0.079-0.212,0.132-0.371,0.132
				c-0.278,0-0.489-0.119-0.701-0.251c-0.291-0.186-0.608-0.37-1.071-0.37c-1.283,0-1.283,1.257-1.283,1.574
				c0,0.648,0.119,1.177,0.198,1.521c0.939,0.172,2.593,0.807,2.593,1.799c0,0.344-0.211,0.688-0.569,0.688
				c-0.317,0-0.793-0.383-1.005-0.568c-0.489-0.396-0.661-0.477-0.899-0.582c-0.026,0.265-0.08,0.847-0.608,1.257
				c-0.556,0.449-1.244,0.503-1.575,0.503c-0.992,0-2.302-0.503-2.302-1.614s1.151-1.653,2.606-1.653
				c0.251,0,0.41,0.013,0.569,0.026c-0.027-0.424-0.04-0.569-0.04-0.873c0-2.223,2.196-2.422,2.302-2.435
				c0.119-0.014,0.225-0.04,0.225-0.186c0-0.198-0.648-0.661-1.865-0.899c0.251-0.105,0.635-0.251,1.257-0.251
				c1.667,0,2.712,0.979,2.712,1.72C95.091,8.091,95.091,8.342,94.92,8.501z M89.257,11.69c-0.278,0-1.416,0.039-1.416,0.78
				c0,0.754,1.336,0.754,1.376,0.754c1.296,0,1.323-0.992,1.336-1.336C90.263,11.795,89.959,11.69,89.257,11.69z"/>
			<path class="st2" d="M102.104,5.657c0-2.31,0-3.03-0.28-3.854l2.221,0.515c0.088,0.015,0.221,0.073,0.221,0.206
				c0,0.176-0.294,0.338-0.588,0.529v2.604h2.324l0.662-1.029c0.059-0.089,0.132-0.191,0.221-0.191c0.059,0,0.176,0.088,0.265,0.161
				l1.235,1.001c0.059,0.059,0.147,0.132,0.147,0.235c0,0.103-0.088,0.176-0.221,0.176h-4.634v3.545h1.707l0.721-1.029
				c0.059-0.073,0.132-0.191,0.221-0.191s0.162,0.06,0.265,0.147l1.236,1.044c0.073,0.06,0.147,0.118,0.147,0.221
				c0,0.133-0.132,0.162-0.221,0.162h-4.075v4.104h3.089l0.809-1.044c0.074-0.088,0.162-0.191,0.235-0.191
				c0.074,0,0.147,0.059,0.265,0.162l1.206,1.044c0.059,0.06,0.147,0.118,0.147,0.221c0,0.133-0.118,0.162-0.221,0.162H98.177
				c-0.912,0-1.221,0.029-1.589,0.088l-0.25-0.529c0.706,0.059,1.397,0.088,2.104,0.088h3.663V9.908h-1.971
				c-0.912,0-1.221,0.029-1.604,0.103l-0.235-0.544c0.691,0.059,1.397,0.088,2.104,0.088h1.707V6.01h-2.648
				c-0.868,1.678-1.662,2.854-3.074,4.031l-0.103-0.045c1.25-2.354,2.516-6.09,2.369-7.428l2.162,0.867
				c0.059,0.03,0.162,0.074,0.162,0.191c0,0.25-0.426,0.368-0.632,0.427c-0.382,0.912-0.588,1.339-0.721,1.604H102.104z"/>
			<path class="st2" d="M111.631,8.217c-0.471,0-0.574-0.31-0.809-1c-0.191-0.56-0.485-1.118-0.853-1.442l0.03-0.088
				c1.235,0.059,2.544,0.529,2.544,1.633C112.544,7.982,111.955,8.217,111.631,8.217z M113.338,8.305
				c-0.132,0.56-0.838,3.104-0.838,3.501c0,0.309,0.118,0.604,0.235,0.883c0.397,0.985,0.441,1.088,0.441,1.397
				c0,0.588-0.353,1.103-0.985,1.103c-0.868,0-0.868-0.882-0.868-0.971c0-0.191,0.103-1,0.103-1.177c0-1.235-0.883-1.75-0.971-1.794
				l0.015-0.104c0.22,0.015,0.618,0.015,0.971-0.485c0.677-0.971,2.103-4.589,2.544-5.84l0.132,0.029
				C113.97,5.393,113.441,7.82,113.338,8.305z M113.029,4.804c-0.485,0-0.529-0.132-0.971-1.309
				c-0.176-0.485-0.382-0.824-0.735-1.251l0.059-0.088c0.883,0.088,2.56,0.544,2.56,1.75C113.941,4.525,113.397,4.804,113.029,4.804
				z M123.281,6.82h-3.971V9.6h1.191l0.426-0.545c0.06-0.073,0.133-0.161,0.25-0.161c0.089,0,0.147,0.044,0.266,0.132l1.015,0.839
				c0.059,0.044,0.117,0.146,0.117,0.191c0,0.044-0.015,0.146-0.088,0.235c-0.059,0.059-0.368,0.294-0.427,0.353v1.912
				c0,0.265,0.029,1.53,0.029,1.766c0,0.353,0,0.471-0.294,0.691c-0.191,0.146-0.367,0.19-0.647,0.19
				c-0.632,0-0.632-0.059-0.603-1.029h-3.84c0,0.574,0,1.015-0.926,1.015c-0.486,0-0.662-0.146-0.662-0.559
				c0-0.044,0.073-1.044,0.073-1.25v-2.751c0-1.104-0.029-1.412-0.103-1.795l1.662,0.766h1.059V6.82h-1.691
				c-0.897,0-1.221,0.029-1.589,0.103l-0.235-0.544c0.897,0.073,1.927,0.088,2.089,0.088h1.427V4.025
				c-1.824,0.221-2.941,0.265-3.501,0.279V4.201c3.222-0.721,5.384-2.045,5.648-2.222c0.089-0.059,0.118-0.088,0.383-0.367
				l1.75,1.323c0.045,0.029,0.118,0.089,0.118,0.191c0,0.059-0.044,0.177-0.221,0.177c-0.118,0-0.383-0.059-0.544-0.088
				c-0.31,0.103-0.824,0.309-2.133,0.573v2.677h1.765l0.691-0.971c0.073-0.103,0.133-0.191,0.221-0.191
				c0.073,0,0.147,0.06,0.265,0.162l1.104,0.971c0.073,0.059,0.146,0.133,0.146,0.221C123.502,6.805,123.384,6.82,123.281,6.82z
				 M120.56,9.952h-3.854v3.869h3.854V9.952z"/>
			<path class="st2" d="M133.447,13.157c-0.344,0-0.529-0.277-0.675-0.516c-1.15-1.879-1.587-2.593-2.711-3.506
				c-1.628,1.972-3.651,3.651-6.139,4.154l-0.026-0.106c3.439-1.68,6.469-6.283,6.932-7.964c-0.767,0.146-2.605,0.582-3.188,0.873
				c-0.556,0.291-0.622,0.317-0.729,0.317c-0.33,0-1.098-0.78-1.098-1.601c0-0.251,0.026-0.489,0.119-0.714
				c0.423,0.688,0.754,0.899,1.243,0.899c0.529,0,3.479-0.331,3.771-0.582c0.066-0.053,0.331-0.317,0.396-0.357
				c0.054-0.039,0.093-0.053,0.173-0.053c0.158,0,1.362,0.979,1.362,1.23c0,0.146-0.066,0.198-0.317,0.317
				c-0.252,0.105-0.331,0.172-0.463,0.396c-0.662,1.218-1.006,1.839-1.866,2.964c1.602,0.568,2.699,1.481,3.202,1.958
				c0.357,0.357,0.74,0.78,0.74,1.389C134.174,12.747,133.883,13.157,133.447,13.157z"/>
			<path class="st2" d="M144.356,6.305c-0.291,0.119-0.291,0.119-0.833,1.138c-1.72,3.188-3.797,5.438-7.316,6.324l-0.039-0.093
				c1.958-1.032,3.559-2.712,4.511-3.982c-0.198-0.053-0.304-0.119-0.556-0.463c-0.582-0.78-0.979-1.23-1.415-1.469
				c-0.913,0.939-1.826,1.429-2.368,1.707l-0.053-0.079c1.706-1.76,3.294-4.631,3.294-5.094c0-0.396-0.489-0.569-0.834-0.675
				c0.119-0.093,0.384-0.265,0.82-0.265c0.648,0,1.654,0.596,1.654,1.059c0,0.172-0.054,0.225-0.291,0.477
				c-0.159,0.172-0.238,0.277-0.357,0.476c0.489,0.066,1.997-0.185,2.209-0.265c0.119-0.053,0.622-0.396,0.741-0.396
				c0.185,0,1.19,1.085,1.19,1.297C144.713,6.159,144.647,6.186,144.356,6.305z M140.864,6.147c-0.172,0-0.291-0.08-0.622-0.278
				c-0.423,0.582-0.847,1.151-1.336,1.667c0.635,0.014,2.183,0.212,2.407,1.243c0.979-1.521,1.311-2.486,1.456-2.95
				C142.57,5.868,140.969,6.147,140.864,6.147z"/>
			<path class="st2" d="M153.173,4.929c-0.317,0.172-1.905,1.879-2.263,2.223c0.173,0.119,0.357,0.238,0.529,0.37
				c0.093,0.066,0.146,0.106,0.146,0.226c0,0.039-0.119,0.437-0.132,0.476c-0.066,0.252-0.066,0.556-0.066,0.834
				c0,1.124,0.079,2.924,0.079,4.035c0,0.556-0.211,0.979-0.582,0.979c-0.542,0-0.847-0.847-0.847-1.138
				c0-0.119,0.119-0.688,0.133-0.807c0.053-0.305,0.105-1.998,0.105-2.566c0-0.371,0-1.469-0.146-1.693
				c-1.35,1.217-2.924,2.156-4.644,2.751l-0.053-0.079c2.738-1.76,6.363-5.993,6.363-6.614c0-0.437-0.384-0.701-0.688-0.913
				c0.158-0.026,0.277-0.053,0.463-0.053c1.177,0,2.063,1.19,2.063,1.508C153.636,4.691,153.424,4.797,153.173,4.929z"/>
			<path class="st2" d="M159.105,6.596c-0.053,0.238-0.277,1.865-0.344,2.223c-0.582,2.871-2.407,4.114-3.479,4.577l-0.079-0.079
				c1.799-1.72,2.566-4.193,2.566-6.681c0-0.834-0.225-0.899-1.085-1.164c0.464-0.238,0.741-0.371,1.046-0.371
				c0.423,0,1.561,0.424,1.561,0.887C159.291,6.093,159.119,6.503,159.105,6.596z M162.916,11.518
				c-0.251,0.198-1.336,1.045-1.548,1.229c-0.251,0.199-0.305,0.212-0.357,0.212c-0.33,0-1.005-1.164-1.005-1.481
				c0-0.133,0.185-0.661,0.211-0.78c0.066-0.371,0.133-2.13,0.133-3.096c0-0.463,0-2.447-0.172-2.738
				c-0.186-0.331-0.741-0.45-0.992-0.517c0.185-0.132,0.529-0.384,0.912-0.384c0.464,0,1.76,0.477,1.76,0.966
				c0,0.133-0.212,0.675-0.238,0.794c-0.119,0.569-0.277,4.088-0.277,4.908c0,0.105,0.026,0.198,0.119,0.198
				c0.503,0,3.148-1.892,4.815-3.969l0.093,0.079C165.906,8.263,164.914,9.93,162.916,11.518z"/>
			<path class="st2" d="M174.83,12.512c0,0.265,0.029,1.515,0.029,1.795c0,0.161-0.015,0.353-0.161,0.5
				c-0.221,0.206-0.604,0.309-0.839,0.309c-0.441,0-0.441-0.323-0.427-0.706h-2.56v0.177c0,0.529-0.573,0.617-0.823,0.617
				c-0.604,0-0.604-0.338-0.604-0.573c0-0.353,0.06-2.074,0.045-2.471c-0.824,1.485-1.957,2.103-2.384,2.354l-0.088-0.06
				c1.751-1.883,1.868-5.001,1.868-6.442c0-0.339,0-1.221-0.132-1.883l1.706,0.677h2.765l0.456-0.529
				c0.045-0.06,0.133-0.162,0.235-0.162c0.089,0,0.177,0.073,0.235,0.117l0.883,0.677c0.073,0.059,0.147,0.147,0.147,0.25
				c0,0.074-0.015,0.162-0.089,0.235c-0.044,0.06-0.338,0.295-0.396,0.354c-0.029,0.338,0.029,2.015,0.029,2.383
				c0,0.206-0.015,0.367-0.177,0.485c-0.146,0.117-0.5,0.221-0.735,0.221c-0.5,0-0.5-0.368-0.5-0.515h-3.192
				c-0.073,0.353-0.117,0.632-0.265,1.015l0.956,0.412h2.574l0.412-0.5c0.059-0.074,0.133-0.147,0.206-0.147
				c0.059,0,0.132,0.029,0.25,0.118l0.868,0.588c0.073,0.059,0.132,0.147,0.132,0.206C175.256,12.129,175.213,12.159,174.83,12.512z
				 M174.83,5.584c-0.309,0-0.382-0.089-0.941-0.868c-0.662-0.912-1.191-1.456-1.691-1.78c-0.427,0.589-0.985,1.324-2.28,2.295
				c0.574,0.044,1.604,0.059,1.633,0.059h0.53l0.426-0.603c0.074-0.104,0.089-0.191,0.221-0.191c0.074,0,0.177,0.088,0.266,0.147
				l0.867,0.617c0.044,0.029,0.147,0.133,0.147,0.221c0,0.133-0.118,0.162-0.221,0.162h-2.501c-0.912,0-1.221,0.029-1.588,0.103
				l-0.118-0.265c-1.133,0.765-1.956,1.147-2.412,1.354l-0.029-0.104c2.677-2.354,3.589-4.456,3.81-5.118l1.677,0.721
				c0.073,0.029,0.177,0.088,0.177,0.221c0,0.146-0.089,0.176-0.339,0.221c0.78,0.161,3.163,0.691,3.163,2.029
				C175.625,5.216,175.271,5.584,174.83,5.584z M173.315,8.644h-2.986c-0.029,0.323-0.059,0.691-0.146,1.323h3.133V8.644z
				 M173.315,7.157h-2.928l-0.044,1.133h2.972V7.157z M173.432,12.1h-2.56v1.957h2.56V12.1z M177.345,4.216
				c-0.044,0.603-0.044,1.147-0.044,1.779c0,0.824,0.073,4.517,0.073,5.267c0,0.25,0,0.912-0.941,0.912
				c-0.515,0-0.515-0.397-0.515-0.589c0-0.162,0.029-0.809,0.029-0.956c0.015-1.339,0.015-2.633,0.015-3.618
				c0-3.104-0.015-3.236-0.177-3.986l1.78,0.485c0.117,0.029,0.177,0.132,0.177,0.235C177.743,3.819,177.743,3.892,177.345,4.216z
				 M179.978,3.26c-0.029,2.471-0.073,7.546,0.059,9.767c0,0.104,0.016,0.221,0.016,0.324c0,0.646-0.147,1.647-2.266,1.912
				c-0.118-1.191-0.897-1.604-1.604-1.957v-0.117c0.706,0.088,1.721,0.117,1.912,0.117c0.25,0,0.427,0,0.427-0.44V3.76
				c0-0.162-0.044-0.927-0.279-1.751l2.015,0.574c0.118,0.029,0.177,0.103,0.177,0.221C180.434,2.892,180.405,2.981,179.978,3.26z"
				/>
			<path class="st2" d="M194.007,15.013c-0.397,0.015-1.25,0.029-2.133,0.029c-4.766,0-6.384-0.647-7.046-2.824
				c-0.721,1.059-1.368,1.839-1.927,2.441c-0.015,0.309-0.029,0.456-0.206,0.456c-0.059,0-0.103-0.044-0.147-0.103l-1.162-1.707
				c1.001-0.146,1.78-0.544,2.354-0.838V8.555h-0.676c-0.839,0-1.177,0.074-1.368,0.104l-0.235-0.545
				c0.662,0.074,1.647,0.089,1.765,0.089h0.354l0.691-0.735c0.088-0.104,0.117-0.104,0.146-0.104c0.06,0,0.074,0.015,0.177,0.089
				l1.074,0.838c0.088,0.073,0.132,0.133,0.132,0.221c0,0.177-0.367,0.471-0.573,0.618c0,0.088-0.044,2.383,0.059,2.883
				c0.309,1.471,2.662,1.529,4.134,1.529c1.441,0,2.633-0.088,3.545-0.176c1.162-0.118,1.691-0.25,2.029-0.339l0.029,0.118
				C194.551,13.483,194.17,13.924,194.007,15.013z M184.564,5.304c-0.471,0-0.559-0.235-0.809-0.927
				c-0.441-1.25-1.045-1.765-1.266-1.971l0.044-0.103c1.442,0.235,2.869,1.088,2.869,2.162
				C185.403,5.025,184.947,5.304,184.564,5.304z M194.522,7.496h-7.104c-0.897,0-1.221,0.029-1.589,0.103l-0.25-0.544
				c0.897,0.073,1.942,0.088,2.104,0.088h1.441V4.864h-1.633c-0.632,1-1.044,1.471-1.559,1.956l-0.104-0.059
				c0.604-1.692,0.854-3.369,0.854-3.913c0-0.279-0.015-0.441-0.044-0.589l1.765,0.647c0.133,0.044,0.295,0.118,0.295,0.279
				c0,0.177-0.339,0.295-0.456,0.339c-0.162,0.309-0.295,0.573-0.53,0.985h1.412c-0.029-1.339-0.044-1.941-0.265-2.722l2.104,0.427
				c0.206,0.044,0.279,0.118,0.279,0.221c0,0.177-0.353,0.397-0.559,0.529c-0.015,0.162-0.015,0.927-0.015,1.545h1.177l0.618-0.823
				c0.088-0.118,0.146-0.191,0.22-0.191c0.089,0,0.162,0.073,0.28,0.161l0.971,0.824c0.073,0.073,0.146,0.132,0.146,0.235
				c0,0.132-0.117,0.147-0.22,0.147h-3.207c0,0.353,0,1.515,0.015,2.279h1.691l0.691-0.956c0.088-0.117,0.133-0.177,0.221-0.177
				c0.073,0,0.162,0.045,0.265,0.147l1.06,0.956c0.088,0.073,0.146,0.133,0.146,0.221C194.743,7.467,194.611,7.496,194.522,7.496z
				 M193.095,9.717c0,0.412,0.074,2.177,0.074,2.545c0,0.5-0.633,0.677-1.06,0.677c-0.544,0-0.544-0.354-0.515-0.765h-3.148
				c0,0.338,0.016,0.911-1.029,0.911c-0.441,0-0.5-0.235-0.5-0.485c0-0.265,0.059-1.617,0.059-1.927
				c0-0.427-0.029-1.897-0.117-2.441l1.779,0.691h2.736l0.544-0.604c0.074-0.073,0.133-0.117,0.206-0.117
				c0.059,0,0.088,0.015,0.191,0.088l1.074,0.735c0.044,0.029,0.088,0.104,0.088,0.177C193.478,9.335,193.405,9.452,193.095,9.717z
				 M191.61,9.276h-3.163v2.545h3.163V9.276z"/>
			<path class="st2" d="M209.074,7.232c-0.339,0.117-0.971,0.323-1.545,1.471c-2.854-1.191-4.413-4.104-5.045-5.619
				c-1.839,2.662-3.604,4.516-7.09,5.928l-0.06-0.088c3.913-2.678,5.458-6.046,5.708-7.208l2,0.81
				c0.059,0.029,0.162,0.073,0.162,0.205c0,0.191-0.309,0.221-0.471,0.221c0.706,1.104,2.677,3.178,6.369,4.163L209.074,7.232z
				 M208.058,14.513h-10.443c-0.897,0-1.221,0.029-1.589,0.103l-0.235-0.544c0.883,0.088,1.928,0.088,2.089,0.088h0.427
				c0.015-3.089,0.015-4.369-0.073-5.104c-0.06-0.544-0.089-0.646-0.177-0.882l2.089,0.529c0.073,0.015,0.177,0.073,0.177,0.191
				c0,0.19-0.266,0.367-0.501,0.5c-0.015,0.471-0.029,1.059-0.029,2.706c0,0.56,0.015,1.56,0,2.06h1.618
				c0.029-5.148,0.029-6.222-0.059-7.09c-0.073-0.691-0.147-0.824-0.235-1.029l2.221,0.5c0.074,0.015,0.206,0.059,0.206,0.19
				c0,0.162-0.323,0.397-0.573,0.574c-0.015,0.367-0.029,0.515-0.029,0.721c0,0.338-0.015,1.854-0.015,2.177h1.235l0.721-1
				c0.059-0.073,0.147-0.191,0.221-0.191c0.117,0,0.191,0.089,0.265,0.162l1.089,1c0.103,0.104,0.146,0.162,0.146,0.235
				c0,0.147-0.146,0.147-0.235,0.147h-3.456v3.604h2.75l0.721-0.941c0.074-0.088,0.118-0.177,0.221-0.177
				c0.074,0,0.177,0.089,0.265,0.147l1.28,0.956c0.059,0.044,0.132,0.117,0.132,0.206C208.279,14.497,208.147,14.513,208.058,14.513
				z"/>
			<path class="st2" d="M222.727,5.083h-4.368l0.853,0.486c0.059,0.029,0.191,0.103,0.191,0.22c0,0.191-0.191,0.206-0.529,0.235
				c-0.545,0.516-1.456,1.074-1.604,1.147h2.324l0.617-0.838c0.089-0.118,0.133-0.177,0.221-0.177c0.089,0,0.206,0.103,0.265,0.147
				l0.957,0.838c0.073,0.074,0.146,0.133,0.146,0.235c0,0.133-0.117,0.147-0.221,0.147h-4.692v1.206h1.677l0.56-0.735
				c0.103-0.133,0.161-0.191,0.235-0.191c0.059,0,0.146,0.044,0.294,0.162l0.985,0.735c0.089,0.059,0.162,0.132,0.162,0.235
				c0,0.132-0.133,0.146-0.221,0.146h-3.692l0.015,1.31h3.442l0.691-0.897c0.088-0.117,0.147-0.191,0.221-0.191
				c0.088,0,0.146,0.045,0.279,0.162l1,0.897c0.074,0.073,0.133,0.132,0.133,0.221c0,0.146-0.118,0.162-0.221,0.162h-5.192
				c1.044,0.926,3.133,2.191,5.56,2.441v0.088c-0.661,0.368-1.191,1.016-1.412,1.574c-2.633-1.015-4.03-3.28-4.501-4.104
				c0.015,1.206,0.06,3.221,0.06,3.677c0,0.25-0.015,0.368-0.118,0.5c-0.133,0.177-0.5,0.397-0.927,0.397
				c-0.559,0-0.559-0.397-0.559-0.618c0-0.044,0.073-2.868,0.088-3.412c-1.044,1.265-3.016,2.868-5.825,3.56l-0.029-0.103
				c1.986-1.089,3.163-2.384,4.311-4.001h-2.251c-0.897,0-1.221,0.029-1.589,0.103l-0.235-0.544
				c0.883,0.073,1.927,0.088,2.089,0.088h3.545v-1.31h-2.647c-0.897,0-1.221,0.045-1.589,0.104l-0.235-0.544
				c0.897,0.088,1.927,0.088,2.089,0.088h2.383c0-0.191-0.015-1.029-0.015-1.206h-3.177c-0.912,0-1.222,0.044-1.589,0.103
				l-0.25-0.544c0.897,0.088,1.941,0.088,2.104,0.088h1.427c-0.147-0.132-0.177-0.19-0.383-0.765
				c-0.235-0.691-0.485-1.044-0.691-1.324h-1.485c-0.897,0-1.221,0.045-1.589,0.104l-0.235-0.544
				c0.574,0.059,1.104,0.088,1.485,0.088h3.207c0-2.016-0.073-2.339-0.206-2.986l1.824,0.427c0.103,0.029,0.25,0.073,0.25,0.221
				c0,0.206-0.25,0.309-0.485,0.397c-0.029,0.735-0.029,1.073-0.029,1.883v0.059h0.941c0-0.927,0-2.104-0.235-2.957l1.854,0.383
				c0.146,0.029,0.25,0.088,0.25,0.221c0,0.191-0.221,0.294-0.471,0.397c0,0.309-0.029,1.677-0.015,1.956h0.323
				c0.133-0.206,0.868-1.485,0.971-2.839l1.706,0.779c0.133,0.059,0.221,0.133,0.221,0.221c0,0.25-0.396,0.235-0.529,0.235
				c-0.853,0.735-1.309,1.118-2,1.604h1.912l0.662-0.854c0.073-0.088,0.161-0.19,0.235-0.19c0.073,0,0.132,0.029,0.294,0.161
				l1.044,0.854c0.118,0.103,0.162,0.162,0.162,0.235C222.948,5.069,222.83,5.083,222.727,5.083z M212.828,4.598
				c-0.471,0-0.604-0.323-0.854-0.956c-0.044-0.103-0.309-0.779-0.896-1.367l0.059-0.089c1.354,0.25,2.441,0.633,2.441,1.589
				C213.578,4.245,213.24,4.598,212.828,4.598z M213.372,5.083c0.766,0.251,1.795,0.574,1.795,1.472
				c0,0.367-0.235,0.529-0.368,0.617h2.016c0.191-0.382,0.573-1.427,0.691-2.089H213.372z"/>
		</g>
	</g>
</g>
</svg>
