<svg xmlns="http://www.w3.org/2000/svg" width="352.034" height="51.54"><style>.st0{fill:#221714}.st2{fill:#190907}</style><g id="文字"><path class="st0" d="M51.467 17.846a2.79 2.79 0 0 0-3.695-1.385c-.291.132-7.12 3.303-13.971 11.448l3.436 4.354c.239-.152.466-.328.657-.558 6.023-7.244 12.085-10.116 12.194-10.168a2.789 2.789 0 0 0 1.379-3.691z"/><path d="M51.521 9.642A2.79 2.79 0 0 0 47.9 8.074c-2.511.993-10.121 4.01-18.639 14.26l3.428 4.343c.257-.157.499-.344.702-.59 7.675-9.31 14.132-11.863 16.563-12.825a2.788 2.788 0 0 0 1.567-3.62z" fill="#d61518"/><path class="st0" d="M51.648 2.171A2.795 2.795 0 0 0 48.309.069c-.431.098-10.684 2.554-23.461 16.426-.01.01-.016.023-.026.034l3.394 4.301c.267-.143.52-.319.737-.555C40.372 7.875 49.392 5.549 49.561 5.506a2.79 2.79 0 0 0 2.087-3.335z"/><g><path class="st0" d="M30.628 42.858h4.164v3.039H14.26l.211-15.615a2.822 2.822 0 0 0-2.82-2.859H9.405l13.083-13.73 1.192 1.363a86.55 86.55 0 0 1 3.976-4.024l-2.954-3.38a2.822 2.822 0 0 0-4.166-.09L.779 28.298a2.821 2.821 0 0 0 2.042 4.767h5.97L8.58 48.681a2.823 2.823 0 0 0 2.821 2.859h26.212a2.821 2.821 0 0 0 2.821-2.821v-5.86h3.682l-6.744-9.793-6.744 9.792z"/></g><g><path class="st2" d="M87.021 21.034c-.032 3.145-.032 6.973-.615 9.434-.615 2.598-2.461 7.451-10.394 7.998v-6.494c3.335-.171 5.019-1.777 5.181-4.956H58.042v-5.981h28.979zm-13.535 12.51c-.032 3.213-.032 7.656-2.428 10.664-2.364 2.974-6.282 5.127-12.531 5.195v-6.152c5.537-.273 6.897-2.598 7.609-3.896.972-1.743.972-4.17.972-6.563v-2.905h6.378v3.657zM112.382 37.236H87.633v-6.152h24.749v6.152zM142.329 28.075c0 14.219-6.347 17.705-9.196 19.141-3.594 1.777-7.9 1.982-12.79 2.017h-1.521v-5.981h1.748c5.148.171 8.096-.991 9.974-2.085 1.684-1.06 5.083-3.452 5.083-10.288v-1.641h-10.685c-2.17 3.794-5.473 6.289-9.974 7.69v-7.007c3.854-1.675 5.731-5.024 5.764-10.254h6.185a60.213 60.213 0 0 1-.194 3.418h15.607v4.99zM168.047 20.966c-.292 6.255-1.522 11.382-3.982 15.62l7.738 4.819v7.759l-11.365-7.759c-4.08 4.17-9.682 6.699-16.837 7.656v-6.494c9.778-1.196 15.25-6.118 16.999-15.449h-15.186v-6.152h22.633zM199.937 25.785c0 16.372-5.278 23.345-18.683 23.413h-5.505v-5.981h4.501c5.764 0 9.195-1.162 11.397-4.888h-10.394v-5.981h12.239c.194-1.367.291-2.495.291-3.35v-.786H181.74c-2.072 4.136-5.277 6.665-9.778 7.725v-6.836c3.529-.649 5.602-3.896 5.99-9.604h6.151a33.958 33.958 0 0 1-.421 2.734h16.255v3.554zM202.906 31.459c1.943.034 3.563-.137 5.148-.82 1.717-.752 4.469-2.666 8.483-5.435 3.4-2.393 5.407-3.623 7.253-4.102.972-.273 2.591-.308 4.016-.308h1.845v6.221h-1.229c-3.012-.034-4.76.923-7.577 2.871v19.38h-6.476V34.33c-1.522 1.06-3.141 2.188-5.181 2.837-1.296.41-2.753.615-5.537.615h-2.008v-6.323h1.263zM238.374 35.595c0 3.281.097 4.854-.615 7.178-1.489 4.819-6.087 6.699-8.646 6.768v-6.426a4.017 4.017 0 0 0 2.396-1.504c.485-.615 1.166-1.196 1.198-4.888V22.265h5.666v13.33zm9.389 6.904h.356c1.004 0 2.72-.923 3.724-2.393 1.166-1.709 1.263-3.965 1.263-7.075v-5.298h5.828v3.691c0 5.4.259 9.536-2.461 13.159-1.942 2.495-4.468 3.555-5.99 3.999-2.137.649-4.079.649-6.119.649h-2.817V20.966h6.217v21.533zM268.845 43.115c-1.133 2.393-2.914 4.614-5.343 6.733l-3.043-5.024c1.619-1.333 2.979-2.837 4.079-4.58l-4.145-2.495c.875-3.521 1.457-6.426 1.781-8.716h-2.137V22.88h2.946l.453-4.409 4.695.205-.551 4.204h4.307c.097 6.289-.259 11.04-1.004 14.287l1.489.82-1.972 6.153-1.555-1.025zm-2.04-8.101c.519-1.812.81-3.794.939-5.981h-1.101a98.694 98.694 0 0 1-1.036 5.366l1.198.615zm23.055-10.083h-4.695v2.563h4.177V40.14h-4.177v3.042h4.662v5.469H277.88v1.06h-5.019v-30.42h16.999v5.64zm-11.981 0v2.563h2.429v-2.563h-2.429zm0 10.083h6.605V32.45h-6.605v2.564zm0 8.169h2.429v-3.042h-2.429v3.042zM292.255 19.496h11.916v4.785c2.04-1.743 3.562-3.794 4.662-6.289l5.148.786-.518 1.06h4.015l3.303 3.213c-1.068 2.29-2.202 4.204-3.497 5.742 1.587.889 3.141 1.538 4.695 1.982l-1.036 6.289-.777-.376V49.78h-5.019v-.957h-4.242v.957h-5.019V37.441l-.712.342-1.328-5.776c2.04-.684 3.788-1.606 5.473-2.734l-1.651-1.606-1.846 1.436-1.651-3.145v5.776h-2.299v2.803h2.267v4.956h-2.267v3.008l2.267-.342.291 5.366-13.211 2.188-.291-5.469 1.263-.205V32.963h3.303v10.562l1.521-.239V31.733h-4.76V19.496zm4.469 7.281h2.914v-2.324h-2.914v2.324zm21.791 9.091a39.444 39.444 0 0 1-5.051-3.145c-1.457 1.23-3.012 2.256-4.599 3.145h9.65zm-5.569-9.809l1.263-1.709h-3.465l2.202 1.709zm-2.04 17.807h4.242v-3.042h-4.242v3.042zM341.608 20.214h10.297v5.127h-22.504v5.64c0 8.271-1.004 14.287-3.108 18.047l-4.76-5.059c1.555-2.837 2.363-7.246 2.363-13.228V20.214h11.884v-1.709h5.828v1.709zm1.846 8.477h8.58v5.127h-8.58v2.085h7.771v13.843h-5.342V48.55h-10.038v1.196h-5.343V35.903h7.447v-9.434h5.505v2.222zm2.428 12.168h-10.038v2.734h10.038v-2.734z"/></g><g><path class="st2" d="M70.868 14.645H59.719c-.897 0-1.221.044-1.589.104l-.235-.545c.897.089 1.927.089 2.089.089h2.133c-.162-.133-.176-.206-.353-.883-.147-.589-.279-.839-.368-.985-.103.279-.529.426-.883.426-.529 0-.559-.279-.559-.471 0-.103.029-.515.029-.588.015-.279.015-.604.015-.971 0-.618-.029-1.191-.073-1.604l1.765.604h5.428l.368-.516c.059-.073.132-.176.235-.176.088 0 .191.088.309.176l.824.662c.088.074.147.147.147.235 0 .118-.044.147-.456.412 0 .235.029 1.25.029 1.456 0 .56-.618.647-.912.647-.529 0-.544-.294-.529-.5h-1.309l1.427.559c.088.029.191.104.191.221 0 .162-.206.206-.544.265-.412.368-.824.706-1.265 1.03h3.001l.676-.927c.103-.133.162-.191.235-.191.059 0 .103.015.28.162l1.118.926c.088.074.147.147.147.235-.001.133-.119.148-.222.148zm-.279-5.928H59.895c-.897 0-1.221.029-1.588.103l-.235-.544c.882.073 1.927.088 2.089.088h8.325l.633-.779c.118-.147.162-.177.235-.177.073 0 .118.015.279.147l1.03.779c.073.06.147.133.147.221 0 .147-.133.162-.221.162zm-1.515-4.251c-.015.427.044 2.295.044 2.662 0 .441-.471.691-.941.691-.485 0-.5-.323-.5-.5h-6.604c.044.559-.529.706-.838.706-.309 0-.618-.103-.618-.529 0-.412.044-2.266.044-2.648 0-.573-.015-.911-.088-1.883l1.647.618h1.06c-.03-.985-.044-1.177-.28-1.883l1.868.471c.118.029.191.059.191.162 0 .161-.25.323-.383.427-.015.279-.015.559-.015.823h1.324c-.029-.897-.073-1.235-.265-1.81l1.795.383c.132.029.235.059.235.206s-.118.25-.368.383c0 .471-.015.529-.015.838h1.236l.412-.485c.118-.147.132-.177.221-.177.103 0 .25.104.324.162l.838.573c.074.06.191.147.191.31 0 .176-.368.397-.515.5zm-6.796-.529h-1.207V5.26h1.207V3.937zm0 1.677h-1.207v1.353h1.207V5.614zm4.869 4.559H61.44v1.691h5.708v-1.691zm-5.531 2.045c.118.044.691.221.809.265.471.162.912.544.912 1.133 0 .309-.147.529-.412.677h2.104c.029-.074.426-1.118.529-2.074h-3.942zm3.368-8.281H63.66V5.26h1.324V3.937zm0 1.677H63.66v1.353h1.324V5.614zm2.692-1.677h-1.309V5.26h1.309V3.937zm0 1.677h-1.309v1.353h1.309V5.614zM77.697 13.277c-.41.45-.9.701-1.283.701-.477 0-.503-.225-.556-.807-.066-.688-.609-1.429-.847-1.746l.026-.066c.384.251 1.336.754 1.561.754.198 0 .344-.079.476-.304.781-1.323.992-3.321.992-3.823 0-.966-.225-1.297-.78-1.297-.08 0-.304.014-.714.093a97.1 97.1 0 0 1-2.408 5.093c-.807 1.588-.992 1.72-1.323 1.72-.423 0-.595-.489-.595-.859 0-.477.119-.635.635-1.271 1.071-1.336 1.998-3.161 2.513-4.379-.847.305-1.084.464-1.852.953-.146.093-.291.185-.476.185-.45 0-1.111-.661-1.111-1.362 0-.423.185-.622.344-.794.225.622.423.728.741.728.437 0 2.302-.449 2.672-.529.331-.847.529-1.455.529-1.865 0-.582-.489-.754-1.019-.926.291-.225.635-.384 1.005-.384.569 0 1.588.608 1.588 1.111 0 .212-.106.437-.357.82-.171.277-.33.581-.568 1.084.106-.014.278-.026.516-.026 1.19 0 1.693.675 1.693 2.17 0 1.295-.449 3.968-1.402 5.026zm5.252-2.937c-.238 0-.317-.079-.675-.477-.317-.357-1.19-.635-1.892-.688V9.07c.265-.053 1.336-.265 1.442-.356.066-.054.093-.172.093-.238 0-.186-.331-.913-.887-1.535-.476-.529-1.005-.899-1.389-1.15 3.956.648 3.956 3.479 3.956 3.664 0 .396-.172.885-.648.885zM91.506 5.379c-.807.291-1.627.463-2.897.714-.106.226-1.257 2.62-1.653 3.479-.371.834-.939 1.813-1.23 2.024a.495.495 0 0 1-.265.093c-.198 0-.595-.238-.595-.794 0-.397.159-.582.437-.926.079-.093 1.416-2.024 2.143-3.639-.159.04-.463.106-.873.106-1.323 0-1.693-.794-1.693-1.191 0-.119.013-.185.04-.304.384.542 1.164.582 1.601.582.437 0 .9-.053 1.323-.146.079-.265.384-1.138.384-1.574 0-.265-.119-.543-.953-.701.132-.146.437-.424.953-.424.542 0 1.614.437 1.614.899 0 .212-.08.331-.278.636-.172.251-.198.317-.45.833.357-.119.741-.277.992-.396.569-.265.635-.305.793-.305.265 0 .913.238.913.648-.001.214-.16.333-.306.386zm3.414 3.122a.527.527 0 0 1-.371.132c-.278 0-.489-.119-.701-.251-.291-.186-.608-.37-1.071-.37-1.283 0-1.283 1.257-1.283 1.574 0 .648.119 1.177.198 1.521.939.172 2.593.807 2.593 1.799 0 .344-.211.688-.569.688-.317 0-.793-.383-1.005-.568-.489-.396-.661-.477-.899-.582-.026.265-.08.847-.608 1.257-.556.449-1.244.503-1.575.503-.992 0-2.302-.503-2.302-1.614s1.151-1.653 2.606-1.653c.251 0 .41.013.569.026-.027-.424-.04-.569-.04-.873 0-2.223 2.196-2.422 2.302-2.435.119-.014.225-.04.225-.186 0-.198-.648-.661-1.865-.899a3.029 3.029 0 0 1 1.257-.251c1.667 0 2.712.979 2.712 1.72-.002.052-.002.303-.173.462zm-5.663 3.189c-.278 0-1.416.039-1.416.78 0 .754 1.336.754 1.376.754 1.296 0 1.323-.992 1.336-1.336-.29-.093-.594-.198-1.296-.198zM102.104 5.657c0-2.31 0-3.03-.28-3.854l2.221.515c.088.015.221.073.221.206 0 .176-.294.338-.588.529v2.604h2.324l.662-1.029c.059-.089.132-.191.221-.191.059 0 .176.088.265.161l1.235 1.001c.059.059.147.132.147.235 0 .103-.088.176-.221.176h-4.634v3.545h1.707l.721-1.029c.059-.073.132-.191.221-.191s.162.06.265.147l1.236 1.044c.073.06.147.118.147.221 0 .133-.132.162-.221.162h-4.075v4.104h3.089l.809-1.044c.074-.088.162-.191.235-.191.074 0 .147.059.265.162l1.206 1.044c.059.06.147.118.147.221 0 .133-.118.162-.221.162H98.177c-.912 0-1.221.029-1.589.088l-.25-.529a25.07 25.07 0 0 0 2.104.088h3.663V9.908h-1.971c-.912 0-1.221.029-1.604.103l-.235-.544c.691.059 1.397.088 2.104.088h1.707V6.01h-2.648c-.868 1.678-1.662 2.854-3.074 4.031l-.103-.045c1.25-2.354 2.516-6.09 2.369-7.428l2.162.867c.059.03.162.074.162.191 0 .25-.426.368-.632.427a24.675 24.675 0 0 1-.721 1.604h2.483zM111.631 8.217c-.471 0-.574-.31-.809-1-.191-.56-.485-1.118-.853-1.442l.03-.088c1.235.059 2.544.529 2.544 1.633.001.662-.588.897-.912.897zm1.707.088c-.132.56-.838 3.104-.838 3.501 0 .309.118.604.235.883.397.985.441 1.088.441 1.397 0 .588-.353 1.103-.985 1.103-.868 0-.868-.882-.868-.971 0-.191.103-1 .103-1.177 0-1.235-.883-1.75-.971-1.794l.015-.104c.22.015.618.015.971-.485.677-.971 2.103-4.589 2.544-5.84l.132.029c-.147.546-.676 2.973-.779 3.458zm-.309-3.501c-.485 0-.529-.132-.971-1.309-.176-.485-.382-.824-.735-1.251l.059-.088c.883.088 2.56.544 2.56 1.75-.001.619-.545.898-.913.898zm10.252 2.016h-3.971V9.6h1.191l.426-.545c.06-.073.133-.161.25-.161.089 0 .147.044.266.132l1.015.839c.059.044.117.146.117.191a.393.393 0 0 1-.088.235c-.059.059-.368.294-.427.353v1.912c0 .265.029 1.53.029 1.766 0 .353 0 .471-.294.691-.191.146-.367.19-.647.19-.632 0-.632-.059-.603-1.029h-3.84c0 .574 0 1.015-.926 1.015-.486 0-.662-.146-.662-.559 0-.044.073-1.044.073-1.25v-2.751c0-1.104-.029-1.412-.103-1.795l1.662.766h1.059V6.82h-1.691c-.897 0-1.221.029-1.589.103l-.235-.544c.897.073 1.927.088 2.089.088h1.427V4.025c-1.824.221-2.941.265-3.501.279v-.103c3.222-.721 5.384-2.045 5.648-2.222.089-.059.118-.088.383-.367l1.75 1.323c.045.029.118.089.118.191 0 .059-.044.177-.221.177-.118 0-.383-.059-.544-.088-.31.103-.824.309-2.133.573v2.677h1.765l.691-.971c.073-.103.133-.191.221-.191.073 0 .147.06.265.162l1.104.971c.073.059.146.133.146.221.001.148-.117.163-.22.163zm-2.721 3.132h-3.854v3.869h3.854V9.952zM133.447 13.157c-.344 0-.529-.277-.675-.516-1.15-1.879-1.587-2.593-2.711-3.506-1.628 1.972-3.651 3.651-6.139 4.154l-.026-.106c3.439-1.68 6.469-6.283 6.932-7.964-.767.146-2.605.582-3.188.873-.556.291-.622.317-.729.317-.33 0-1.098-.78-1.098-1.601 0-.251.026-.489.119-.714.423.688.754.899 1.243.899.529 0 3.479-.331 3.771-.582.066-.053.331-.317.396-.357a.25.25 0 0 1 .173-.053c.158 0 1.362.979 1.362 1.23 0 .146-.066.198-.317.317-.252.105-.331.172-.463.396-.662 1.218-1.006 1.839-1.866 2.964a9.206 9.206 0 0 1 3.202 1.958c.357.357.74.78.74 1.389.001.492-.29.902-.726.902zM144.356 6.305c-.291.119-.291.119-.833 1.138-1.72 3.188-3.797 5.438-7.316 6.324l-.039-.093c1.958-1.032 3.559-2.712 4.511-3.982-.198-.053-.304-.119-.556-.463-.582-.78-.979-1.23-1.415-1.469-.913.939-1.826 1.429-2.368 1.707l-.053-.079c1.706-1.76 3.294-4.631 3.294-5.094 0-.396-.489-.569-.834-.675.119-.093.384-.265.82-.265.648 0 1.654.596 1.654 1.059 0 .172-.054.225-.291.477a2.457 2.457 0 0 0-.357.476c.489.066 1.997-.185 2.209-.265.119-.053.622-.396.741-.396.185 0 1.19 1.085 1.19 1.297 0 .157-.066.184-.357.303zm-3.492-.158c-.172 0-.291-.08-.622-.278-.423.582-.847 1.151-1.336 1.667.635.014 2.183.212 2.407 1.243.979-1.521 1.311-2.486 1.456-2.95-.199.039-1.8.318-1.905.318zM153.173 4.929c-.317.172-1.905 1.879-2.263 2.223.173.119.357.238.529.37.093.066.146.106.146.226 0 .039-.119.437-.132.476-.066.252-.066.556-.066.834 0 1.124.079 2.924.079 4.035 0 .556-.211.979-.582.979-.542 0-.847-.847-.847-1.138 0-.119.119-.688.133-.807.053-.305.105-1.998.105-2.566 0-.371 0-1.469-.146-1.693a13.555 13.555 0 0 1-4.644 2.751l-.053-.079c2.738-1.76 6.363-5.993 6.363-6.614 0-.437-.384-.701-.688-.913.158-.026.277-.053.463-.053 1.177 0 2.063 1.19 2.063 1.508.003.223-.209.329-.46.461zM159.105 6.596c-.053.238-.277 1.865-.344 2.223-.582 2.871-2.407 4.114-3.479 4.577l-.079-.079c1.799-1.72 2.566-4.193 2.566-6.681 0-.834-.225-.899-1.085-1.164.464-.238.741-.371 1.046-.371.423 0 1.561.424 1.561.887 0 .105-.172.515-.186.608zm3.811 4.922c-.251.198-1.336 1.045-1.548 1.229-.251.199-.305.212-.357.212-.33 0-1.005-1.164-1.005-1.481 0-.133.185-.661.211-.78.066-.371.133-2.13.133-3.096 0-.463 0-2.447-.172-2.738-.186-.331-.741-.45-.992-.517.185-.132.529-.384.912-.384.464 0 1.76.477 1.76.966 0 .133-.212.675-.238.794-.119.569-.277 4.088-.277 4.908 0 .105.026.198.119.198.503 0 3.148-1.892 4.815-3.969l.093.079c-.464 1.324-1.456 2.991-3.454 4.579zM174.83 12.512c0 .265.029 1.515.029 1.795 0 .161-.015.353-.161.5-.221.206-.604.309-.839.309-.441 0-.441-.323-.427-.706h-2.56v.177c0 .529-.573.617-.823.617-.604 0-.604-.338-.604-.573 0-.353.06-2.074.045-2.471-.824 1.485-1.957 2.103-2.384 2.354l-.088-.06c1.751-1.883 1.868-5.001 1.868-6.442 0-.339 0-1.221-.132-1.883l1.706.677h2.765l.456-.529c.045-.06.133-.162.235-.162.089 0 .177.073.235.117l.883.677c.073.059.147.147.147.25a.314.314 0 0 1-.089.235c-.044.06-.338.295-.396.354-.029.338.029 2.015.029 2.383 0 .206-.015.367-.177.485-.146.117-.5.221-.735.221-.5 0-.5-.368-.5-.515h-3.192c-.073.353-.117.632-.265 1.015l.956.412h2.574l.412-.5c.059-.074.133-.147.206-.147.059 0 .132.029.25.118l.868.588c.073.059.132.147.132.206.002.115-.041.145-.424.498zm0-6.928c-.309 0-.382-.089-.941-.868-.662-.912-1.191-1.456-1.691-1.78-.427.589-.985 1.324-2.28 2.295a34.34 34.34 0 0 0 1.633.059h.53l.426-.603c.074-.104.089-.191.221-.191.074 0 .177.088.266.147l.867.617c.044.029.147.133.147.221 0 .133-.118.162-.221.162h-2.501c-.912 0-1.221.029-1.588.103l-.118-.265a15.566 15.566 0 0 1-2.412 1.354l-.029-.104c2.677-2.354 3.589-4.456 3.81-5.118l1.677.721c.073.029.177.088.177.221 0 .146-.089.176-.339.221.78.161 3.163.691 3.163 2.029a.802.802 0 0 1-.797.779zm-1.515 3.06h-2.986c-.029.323-.059.691-.146 1.323h3.133V8.644zm0-1.487h-2.928l-.044 1.133h2.972V7.157zm.117 4.943h-2.56v1.957h2.56V12.1zm3.913-7.884c-.044.603-.044 1.147-.044 1.779 0 .824.073 4.517.073 5.267 0 .25 0 .912-.941.912-.515 0-.515-.397-.515-.589 0-.162.029-.809.029-.956.015-1.339.015-2.633.015-3.618 0-3.104-.015-3.236-.177-3.986l1.78.485a.235.235 0 0 1 .177.235c.001.074.001.147-.397.471zm2.633-.956c-.029 2.471-.073 7.546.059 9.767 0 .104.016.221.016.324 0 .646-.147 1.647-2.266 1.912-.118-1.191-.897-1.604-1.604-1.957v-.117c.706.088 1.721.117 1.912.117.25 0 .427 0 .427-.44V3.76c0-.162-.044-.927-.279-1.751l2.015.574c.118.029.177.103.177.221-.001.088-.03.177-.457.456zM194.007 15.013c-.397.015-1.25.029-2.133.029-4.766 0-6.384-.647-7.046-2.824a20.441 20.441 0 0 1-1.927 2.441c-.015.309-.029.456-.206.456-.059 0-.103-.044-.147-.103l-1.162-1.707c1.001-.146 1.78-.544 2.354-.838V8.555h-.676c-.839 0-1.177.074-1.368.104l-.235-.545c.662.074 1.647.089 1.765.089h.354l.691-.735c.088-.104.117-.104.146-.104.06 0 .074.015.177.089l1.074.838c.088.073.132.133.132.221 0 .177-.367.471-.573.618 0 .088-.044 2.383.059 2.883.309 1.471 2.662 1.529 4.134 1.529 1.441 0 2.633-.088 3.545-.176 1.162-.118 1.691-.25 2.029-.339l.029.118c-.472.338-.853.779-1.016 1.868zm-9.443-9.709c-.471 0-.559-.235-.809-.927-.441-1.25-1.045-1.765-1.266-1.971l.044-.103c1.442.235 2.869 1.088 2.869 2.162.001.56-.455.839-.838.839zm9.958 2.192h-7.104c-.897 0-1.221.029-1.589.103l-.25-.544c.897.073 1.942.088 2.104.088h1.441V4.864h-1.633c-.632 1-1.044 1.471-1.559 1.956l-.104-.059c.604-1.692.854-3.369.854-3.913 0-.279-.015-.441-.044-.589l1.765.647c.133.044.295.118.295.279 0 .177-.339.295-.456.339-.162.309-.295.573-.53.985h1.412c-.029-1.339-.044-1.941-.265-2.722l2.104.427c.206.044.279.118.279.221 0 .177-.353.397-.559.529-.015.162-.015.927-.015 1.545h1.177l.618-.823c.088-.118.146-.191.22-.191.089 0 .162.073.28.161l.971.824c.073.073.146.132.146.235 0 .132-.117.147-.22.147h-3.207c0 .353 0 1.515.015 2.279h1.691l.691-.956c.088-.117.133-.177.221-.177.073 0 .162.045.265.147l1.06.956c.088.073.146.133.146.221.001.135-.131.164-.22.164zm-1.427 2.221c0 .412.074 2.177.074 2.545 0 .5-.633.677-1.06.677-.544 0-.544-.354-.515-.765h-3.148c0 .338.016.911-1.029.911-.441 0-.5-.235-.5-.485 0-.265.059-1.617.059-1.927 0-.427-.029-1.897-.117-2.441l1.779.691h2.736l.544-.604c.074-.073.133-.117.206-.117.059 0 .088.015.191.088l1.074.735a.23.23 0 0 1 .088.177c.001.133-.072.25-.382.515zm-1.485-.441h-3.163v2.545h3.163V9.276zM209.074 7.232c-.339.117-.971.323-1.545 1.471-2.854-1.191-4.413-4.104-5.045-5.619-1.839 2.662-3.604 4.516-7.09 5.928l-.06-.088c3.913-2.678 5.458-6.046 5.708-7.208l2 .81c.059.029.162.073.162.205 0 .191-.309.221-.471.221.706 1.104 2.677 3.178 6.369 4.163l-.028.117zm-1.016 7.281h-10.443c-.897 0-1.221.029-1.589.103l-.235-.544c.883.088 1.928.088 2.089.088h.427c.015-3.089.015-4.369-.073-5.104-.06-.544-.089-.646-.177-.882l2.089.529c.073.015.177.073.177.191 0 .19-.266.367-.501.5a79.056 79.056 0 0 0-.029 2.706c0 .56.015 1.56 0 2.06h1.618c.029-5.148.029-6.222-.059-7.09-.073-.691-.147-.824-.235-1.029l2.221.5c.074.015.206.059.206.19 0 .162-.323.397-.573.574-.015.367-.029.515-.029.721 0 .338-.015 1.854-.015 2.177h1.235l.721-1c.059-.073.147-.191.221-.191.117 0 .191.089.265.162l1.089 1c.103.104.146.162.146.235 0 .147-.146.147-.235.147h-3.456v3.604h2.75l.721-.941c.074-.088.118-.177.221-.177.074 0 .177.089.265.147l1.28.956c.059.044.132.117.132.206-.003.146-.135.162-.224.162zM222.727 5.083h-4.368l.853.486c.059.029.191.103.191.22 0 .191-.191.206-.529.235-.545.516-1.456 1.074-1.604 1.147h2.324l.617-.838c.089-.118.133-.177.221-.177.089 0 .206.103.265.147l.957.838c.073.074.146.133.146.235 0 .133-.117.147-.221.147h-4.692v1.206h1.677l.56-.735c.103-.133.161-.191.235-.191.059 0 .146.044.294.162l.985.735c.089.059.162.132.162.235 0 .132-.133.146-.221.146h-3.692l.015 1.31h3.442l.691-.897c.088-.117.147-.191.221-.191.088 0 .146.045.279.162l1 .897c.074.073.133.132.133.221 0 .146-.118.162-.221.162h-5.192c1.044.926 3.133 2.191 5.56 2.441v.088c-.661.368-1.191 1.016-1.412 1.574-2.633-1.015-4.03-3.28-4.501-4.104.015 1.206.06 3.221.06 3.677 0 .25-.015.368-.118.5-.133.177-.5.397-.927.397-.559 0-.559-.397-.559-.618 0-.044.073-2.868.088-3.412-1.044 1.265-3.016 2.868-5.825 3.56l-.029-.103c1.986-1.089 3.163-2.384 4.311-4.001h-2.251c-.897 0-1.221.029-1.589.103l-.235-.544a31.92 31.92 0 0 0 2.089.088h3.545v-1.31h-2.647c-.897 0-1.221.045-1.589.104l-.235-.544c.897.088 1.927.088 2.089.088h2.383c0-.191-.015-1.029-.015-1.206h-3.177c-.912 0-1.222.044-1.589.103l-.25-.544c.897.088 1.941.088 2.104.088h1.427c-.147-.132-.177-.19-.383-.765a4.391 4.391 0 0 0-.691-1.324h-1.485c-.897 0-1.221.045-1.589.104l-.235-.544c.574.059 1.104.088 1.485.088h3.207c0-2.016-.073-2.339-.206-2.986l1.824.427c.103.029.25.073.25.221 0 .206-.25.309-.485.397-.029.735-.029 1.073-.029 1.883v.059h.941c0-.927 0-2.104-.235-2.957l1.854.383c.146.029.25.088.25.221 0 .191-.221.294-.471.397 0 .309-.029 1.677-.015 1.956h.323c.133-.206.868-1.485.971-2.839l1.706.779c.133.059.221.133.221.221 0 .25-.396.235-.529.235-.853.735-1.309 1.118-2 1.604h1.912l.662-.854c.073-.088.161-.19.235-.19.073 0 .132.029.294.161l1.044.854c.118.103.162.162.162.235-.003.133-.121.147-.224.147zm-9.899-.485c-.471 0-.604-.323-.854-.956-.044-.103-.309-.779-.896-1.367l.059-.089c1.354.25 2.441.633 2.441 1.589 0 .47-.338.823-.75.823zm.544.485c.766.251 1.795.574 1.795 1.472 0 .367-.235.529-.368.617h2.016c.191-.382.573-1.427.691-2.089h-4.134z"/></g></g></svg>